<svg width="960" height="700" xmlns="http://www.w3.org/2000/svg">
  <!-- Home Node -->
  <rect x="40" y="40" width="200" height="100" rx="15" fill="#e3f2fd" stroke="#1976d2" stroke-width="2"/>
  <text x="140" y="70" text-anchor="middle" font-size="18" fill="#1976d2">Home Node</text>
  <text x="140" y="95" text-anchor="middle" font-size="13" fill="#1976d2">(Every Home = Node)</text>

  <!-- Bank Buddy -->
  <rect x="300" y="40" width="200" height="100" rx="15" fill="#fffde7" stroke="#fbc02d" stroke-width="2"/>
  <text x="400" y="70" text-anchor="middle" font-size="18" fill="#fbc02d">Bank Buddy</text>
  <text x="400" y="95" text-anchor="middle" font-size="13" fill="#fbc02d">(AI/PGP, User Token)</text>

  <!-- User Token -->
  <ellipse cx="540" cy="90" rx="60" ry="35" fill="#e8f5e9" stroke="#388e3c" stroke-width="2"/>
  <text x="540" y="90" text-anchor="middle" font-size="16" fill="#388e3c">User Token</text>

  <!-- 3rd Party PGPG -->
  <rect x="640" y="40" width="200" height="100" rx="15" fill="#f3e5f5" stroke="#7b1fa2" stroke-width="2"/>
  <text x="740" y="70" text-anchor="middle" font-size="18" fill="#7b1fa2">3rd Party PGPG</text>
  <text x="740" y="95" text-anchor="middle" font-size="13" fill="#7b1fa2">(Payment Gateway)</text>

  <!-- Bridges & Wrappers -->
  <rect x="300" y="200" width="200" height="90" rx="15" fill="#e1f5fe" stroke="#0288d1" stroke-width="2"/>
  <text x="400" y="230" text-anchor="middle" font-size="17" fill="#0288d1">Bridges &amp; Wrappers</text>
  <text x="400" y="255" text-anchor="middle" font-size="13" fill="#0288d1">(ETH, WBTC, WETH, etc.)</text>

  <!-- Arbitrator -->
  <rect x="640" y="200" width="200" height="90" rx="15" fill="#ffebee" stroke="#c62828" stroke-width="2"/>
  <text x="740" y="230" text-anchor="middle" font-size="17" fill="#c62828">Arbitrator Program</text>
  <text x="740" y="255" text-anchor="middle" font-size="13" fill="#c62828">(Verification, Trustless)</text>

  <!-- Arrows and Flows -->
  <!-- Home Node to Bank Buddy -->
  <line x1="240" y1="90" x2="300" y2="90" stroke="#1976d2" stroke-width="2" marker-end="url(#arrow)"/>
  <!-- Bank Buddy to User Token -->
  <line x1="500" y1="90" x2="480" y2="90" stroke="#fbc02d" stroke-width="2" marker-end="url(#arrow)"/>
  <line x1="500" y1="90" x2="540" y2="90" stroke="#fbc02d" stroke-width="2" marker-end="url(#arrow)"/>
  <!-- User Token to 3rd Party PGPG -->
  <line x1="600" y1="90" x2="640" y2="90" stroke="#388e3c" stroke-width="2" marker-end="url(#arrow)"/>
  <!-- Bank Buddy to Bridges & Wrappers -->
  <line x1="400" y1="140" x2="400" y2="200" stroke="#0288d1" stroke-width="2" marker-end="url(#arrow)"/>
  <!-- 3rd Party PGPG to Arbitrator -->
  <line x1="740" y1="140" x2="740" y2="200" stroke="#c62828" stroke-width="2" marker-end="url(#arrow)"/>
  <!-- Bridges & Wrappers to Arbitrator -->
  <line x1="500" y1="245" x2="640" y2="245" stroke="#c62828" stroke-width="2" marker-end="url(#arrow)"/>

  <!-- SVG Arrow Marker -->
  <defs>
    <marker id="arrow" markerWidth="10" markerHeight="10" refX="10" refY="5" orient="auto" markerUnits="strokeWidth">
      <path d="M0,0 L10,5 L0,10 L2,5 z" fill="#555" />
    </marker>
  </defs>

  <!-- Legend -->
  <rect x="40" y="320" width="860" height="120" rx="10" fill="#f9fbe7" stroke="#afb42b" stroke-width="2"/>
  <text x="60" y="345" font-size="15" fill="#333">Legend:</text>
  <text x="60" y="365" font-size="13" fill="#1976d2">Home Node:</text>
  <text x="180" y="365" font-size="13" fill="#1976d2">Every home runs a node, enabling trustless access for all users in the household.</text>
  <text x="60" y="385" font-size="13" fill="#fbc02d">Bank Buddy:</text>
  <text x="180" y="385" font-size="13" fill="#fbc02d">AI-driven, uses user token and home node for authentication and payments.</text>
  <text x="60" y="405" font-size="13" fill="#388e3c">User Token:</text>
  <text x="180" y="405" font-size="13" fill="#388e3c">Personal, non-custodial token for access and authentication.</text>
  <text x="60" y="425" font-size="13" fill="#7b1fa2">3rd Party PGPG:</text>
  <text x="180" y="425" font-size="13" fill="#7b1fa2">External payment gateways or partners.</text>
  <text x="60" y="445" font-size="13" fill="#0288d1">Bridges & Wrappers:</text>
  <text x="240" y="445" font-size="13" fill="#0288d1">Reusable ETH wrappers, bridges for cross-chain and liquidity.</text>
  <text x="60" y="465" font-size="13" fill="#c62828">Arbitrator Program:</text>
  <text x="220" y="465" font-size="13" fill="#c62828">Runs verification on either end, ensures trustless settlement.</text>
</svg>
